#!OML:ASF E:\emotionWalksFemale\Project 1\Capture day 1\Session 1\Female1.ASF
:FULLY-SPECIFIED
:DEGREES
188
root 8.8661 19.2129 12.9328 -165.291 -9.8056 -180.219
lowerback 4.87741 1.20204 1.99046
upperback -7.644 1.43226 -0.0755011
thorax -10.8452 0.359699 -1.36596
lowerneck -6.1085 -2.33965 -5.98461
upperneck -4.66916 -2.93825 5.48791
head -0.243763 -1.49399 2.734
rclavicle -3.64335e-015 5.36719e-015
rhumerus 100.157 -23.3197 -66.7699
rradius 53.1799
rwrist -10.8288
rhand -15.0698 -33.1156
rfingers 7.12502
rthumb 11.0975 -422.802
lclavicle -3.64335e-015 5.36719e-015
lhumerus 115.229 20.3722 76.5609
lradius 33.6788
lwrist 33.4389
lhand -5.51377 -49.6363
lfingers 7.12502
lthumb 20.2997 -20.6772
rfemur 3.68318 13.1445 29.2104
rtibia 15.3069
rfoot -25.0986 -38.6952
rtoes 64.4082
lfemur -5.11304 -21.7532 -23.751
ltibia 26.7
lfoot -29.89 27.9452
ltoes 67.2404
189
root 8.87511 19.3844 12.7686 -166.067 -10.2875 -180.34
lowerback 5.90126 1.11517 1.74832
upperback -7.55174 1.36465 0.131051
thorax -11.3777 0.364611 -1.02062
lowerneck -5.81659 -2.48702 -6.17624
upperneck -4.52957 -3.12172 5.59981
head -0.232521 -1.57846 2.80567
rclavicle 2.87772e-014 -7.95139e-015
rhumerus 100.01 -23.2265 -67.4711
rradius 54.968
rwrist -11.8975
rhand -14.9658 -32.7895
rfingers 7.12502
rthumb 11.1977 -422.471
lclavicle 2.87772e-014 -7.95139e-015
lhumerus 115.245 20.4532 76.9108
lradius 33.8378
lwrist 32.8115
lhand -5.98287 -49.9925
lfingers 7.12502
lthumb 19.8488 -20.9861
rfemur 3.87229 14.1045 29.5124
rtibia 15.7058
rfoot -27.5871 -38.1441
rtoes 64.6288
lfemur -4.52211 -23.1298 -24.4072
ltibia 26.5692
lfoot -32.4982 26.7833
ltoes 67.5331
190
root 8.88416 19.5464 12.6097 -166.908 -10.7686 -180.444
lowerback 7.09315 1.12508 1.59752
upperback -7.53481 1.42613 0.251721
thorax -12.0952 0.41566 -0.840557
lowerneck -5.25113 -2.76317 -6.29363
upperneck -4.33895 -3.48749 5.75173
head -0.240171 -1.75458 2.87663
rclavicle -1.71203e-014 6.36111e-015
rhumerus 99.2516 -23.6158 -67.521
rradius 56.626
rwrist -12.9453
rhand -14.8986 -32.6328
rfingers 7.12502
rthumb 11.2626 -422.31
lclavicle -1.71203e-014 6.36111e-015
lhumerus 114.795 20.3465 76.9229
lradius 34.0721
lwrist 32.5988
lhand -6.19132 -50.1636
lfingers 7.12502
lthumb 19.6484 -21.1366
rfemur 4.11907 14.9481 29.8201
rtibia 15.9438
rfoot -32.0234 -35.8647
rtoes 65.6686
lfemur -3.98733 -24.0421 -25.0082
ltibia 26.4837
lfoot -35.0673 25.1953
ltoes 67.9539
191
root 8.89055 19.6993 12.4543 -167.698 -11.3118 -180.507
lowerback 8.19206 1.075 1.57619
upperback -7.3756 1.43375 0.425085
thorax -12.5962 0.440882 -0.664121
lowerneck -5.47688 -3.02974 -6.26436
upperneck -3.84839 -3.82649 5.56416
head -0.0282839 -1.91393 2.79097
rclavicle 3.33089e-014 1.11319e-014
rhumerus 98.5888 -23.7364 -67.5949
rradius 58.1573
rwrist -13.1258
rhand -14.7453 -32.7022
rfingers 7.12502
rthumb 11.4104 -422.372
lclavicle 3.33089e-014 1.11319e-014
lhumerus 114.173 20.809 76.564
lradius 34.475
lwrist 33.0543
lhand -6.42286 -50.2231
lfingers 7.12502
lthumb 19.4258 -21.1735
rfemur 4.24813 15.4642 30.0448
rtibia 16.0338
rfoot -35.6912 -33.1819
rtoes 66.5024
lfemur -3.74066 -23.9567 -25.3606
ltibia 26.4572
lfoot -36.262 24.5605
ltoes 67.9597
192
root 8.89444 19.8413 12.2973 -168.343 -11.9801 -180.471
lowerback 9.03437 0.959934 1.77658
upperback -7.24964 1.37055 0.598664
thorax -12.9749 0.40934 -0.590745
lowerneck -5.43645 -3.16194 -6.1598
upperneck -3.69569 -4.00541 5.35697
head 0.0170143 -2.00109 2.69621
rclavicle 8.03214e-015 2.78299e-015
rhumerus 97.5378 -23.6305 -67.4385
rradius 59.5207
rwrist -12.6
rhand -14.7093 -32.7235
rfingers 7.12502
rthumb 11.4451 -422.391
lclavicle 8.03214e-015 2.78299e-015
lhumerus 112.967 21.679 75.6646
lradius 35.1581
lwrist 33.8317
lhand -6.61436 -50.3754
lfingers 7.12502
lthumb 19.2417 -21.3073
rfemur 4.15633 16.0707 30.2809
rtibia 16.1027
rfoot -38.5707 -30.3626
rtoes 67.2652
lfemur -3.82556 -23.0675 -25.362
ltibia 26.4423
lfoot -35.6043 26.7779
ltoes 67.27
193
root 8.89475 19.973 12.1379 -168.784 -12.6339 -180.479
lowerback 9.48698 0.848557 2.03748
upperback -7.08863 1.30319 0.715758
thorax -13.0685 0.368826 -0.603685
lowerneck -5.24525 -3.18561 -6.28513
upperneck -3.84772 -4.03687 5.50296
head -0.0557171 -2.01749 2.77256
rclavicle -1.66637e-014 -1.23246e-014
rhumerus 96.4391 -23.8609 -66.8772
rradius 60.458
rwrist -12.128
rhand -14.6266 -32.6016
rfingers 7.12502
rthumb 11.5249 -422.265
lclavicle -1.66637e-014 -1.23246e-014
lhumerus 111.462 22.9193 74.2533
lradius 35.9407
lwrist 35.0652
lhand -6.87561 -50.6069
lfingers 7.12502
lthumb 18.9904 -21.514
rfemur 3.80181 16.9848 30.35
rtibia 16.2558
rfoot -40.6133 -27.9261
rtoes 67.8604
lfemur -4.10208 -21.9649 -25.3154
ltibia 26.3618
lfoot -33.8042 28.8289
ltoes 66.8017
194
root 8.89279 20.0912 11.9769 -169.036 -13.1529 -180.724
lowerback 9.70341 0.815232 2.05597
upperback -6.93876 1.2874 0.769468
thorax -13.0301 0.371102 -0.556369
lowerneck -5.00681 -3.18146 -6.37168
upperneck -4.00697 -4.03495 5.58056
head -0.143651 -2.01762 2.82073
rclavicle 2.19191e-014 7.15625e-015
rhumerus 95.0937 -24.3956 -65.8105
rradius 61.0588
rwrist -11.7134
rhand -14.6246 -32.4186
rfingers 7.12502
rthumb 11.5268 -422.082
lclavicle 2.19191e-014 7.15625e-015
lhumerus 109.824 24.0313 72.7476
lradius 36.615
lwrist 36.3863
lhand -7.39831 -50.6682
lfingers 7.12502
lthumb 18.4877 -21.5268
rfemur 3.23135 18.0958 30.0473
rtibia 16.5192
rfoot -41.446 -26.4393
rtoes 68.0719
lfemur -4.4577 -21.0956 -25.5477
ltibia 26.177
lfoot -32.3686 29.8831
ltoes 66.8667
195
root 8.88994 20.2021 11.8158 -169.138 -13.6715 -180.986
lowerback 9.90107 0.806461 2.13092
upperback -6.88345 1.30426 0.805059
thorax -13.0877 0.377161 -0.566341
lowerneck -4.73205 -3.23748 -6.46379
upperneck -4.20161 -4.11599 5.55135
head -0.246494 -2.05919 2.83335
rclavicle 1.88224e-015 2.38542e-015
rhumerus 93.5638 -25.8919 -63.7948
rradius 61.2118
rwrist -12.4624
rhand -14.9597 -32.1372
rfingers 7.12502
rthumb 11.2036 -421.818
lclavicle 1.88224e-015 2.38542e-015
lhumerus 108.144 24.7319 71.3637
lradius 37.1658
lwrist 37.3834
lhand -8.17138 -50.694
lfingers 7.12502
lthumb 17.7439 -21.4836
rfemur 2.34391 18.8863 29.541
rtibia 16.9269
rfoot -40.944 -26.2892
rtoes 67.9435
lfemur -4.98062 -20.6329 -25.7645
ltibia 25.8844
lfoot -31.4859 30.4759
ltoes 66.9346
196
root 8.88346 20.3061 11.6572 -169.156 -14.1714 -181.064
lowerback 10.0362 0.8305 2.48361
upperback -6.8188 1.40934 0.876571
thorax -13.0887 0.401396 -0.710283
lowerneck -4.73785 -3.38841 -6.67858
upperneck -4.33331 -4.30893 5.51939
head -0.271267 -2.15366 2.85976
rclavicle 9.69696e-015 -1.35174e-014
rhumerus 91.5636 -26.3608 -62.1249
rradius 61.6313
rwrist -12.0589
rhand -15.0968 -31.8389
rfingers 7.12502
rthumb 11.0714 -421.527
lclavicle 9.69696e-015 -1.35174e-014
lhumerus 106.253 25.1132 70.265
lradius 38.039
lwrist 38.1216
lhand -8.95698 -50.9205
lfingers 7.12502
lthumb 16.9878 -21.6433
rfemur 1.13057 19.463 28.9834
rtibia 17.4807
rfoot -40.0612 -26.7986
rtoes 67.6842
lfemur -5.62788 -20.4803 -25.7983
ltibia 25.4968
lfoot -30.6146 31.1316
ltoes 66.6501
197
root 8.87363 20.3964 11.5002 -169.184 -14.6125 -181.081
lowerback 10.0837 0.796795 2.89567
upperback -6.80018 1.43692 0.935652
thorax -13.0894 0.380403 -0.883179
lowerneck -4.52043 -3.47907 -6.52219
upperneck -4.39629 -4.44686 5.27791
head -0.32974 -2.22409 2.75125
rclavicle -4.38569e-015 1.59028e-015
rhumerus 89.4044 -26.6481 -60.507
rradius 61.9657
rwrist -11.8625
rhand -14.8092 -32.4077
rfingers 7.12502
rthumb 11.3487 -422.081
lclavicle -4.38569e-015 1.59028e-015
lhumerus 104.147 25.2714 69.1401
lradius 38.9655
lwrist 38.6325
lhand -9.73367 -51.3243
lfingers 7.12502
lthumb 16.2401 -21.9844
rfemur -0.128732 20.3246 28.416
rtibia 18.061
rfoot -40.198 -26.1773
rtoes 67.7464
lfemur -6.28126 -20.3688 -25.8052
ltibia 25.0695
lfoot -29.6926 32.0348
ltoes 66.1225
198
root 8.86276 20.4768 11.3443 -169.24 -15.1445 -181.146
lowerback 10.0111 0.708967 3.30214
upperback -6.65237 1.39158 1.01851
thorax -12.8696 0.335439 -1.01053
lowerneck -4.62128 -3.59138 -6.55463
upperneck -4.31586 -4.59043 5.15707
head -0.280436 -2.29322 2.71023
rclavicle 2.07233e-014 -3.18055e-015
rhumerus 87.3641 -27.2633 -58.5879
rradius 61.9876
rwrist -12.5862
rhand -15.1239 -32.5532
rfingers 7.12502
rthumb 11.0453 -422.243
lclavicle 2.07233e-014 -3.18055e-015
lhumerus 102.428 25.102 68.5924
lradius 39.7919
lwrist 38.7825
lhand -10.3127 -51.7356
lfingers 7.12502
lthumb 15.6825 -22.3511
rfemur -1.34963 21.0827 27.7893
rtibia 18.5677
rfoot -40.7004 -25.2294
rtoes 67.8788
lfemur -6.94527 -20.3823 -25.8374
ltibia 24.655
lfoot -29.2622 32.1227
ltoes 65.8763
